<?xml version="1.0" encoding="UTF-8"?><svg id="Layer_2" xmlns="http://www.w3.org/2000/svg" viewBox="0 0 198.89 197.33"><defs><style>.cls-1{stroke-width:2px;}.cls-1,.cls-2,.cls-3,.cls-4{stroke-miterlimit:10;}.cls-1,.cls-3{fill:#e0ab7c;}.cls-1,.cls-3,.cls-4{stroke:#b17f4a;}.cls-2{fill:none;stroke:#53ae78;}.cls-2,.cls-3{stroke-width:1.81px;}.cls-5{fill:#53ae78;}.cls-6,.cls-4{fill:#f9f1e6;}.cls-4{stroke-width:1.55px;}</style></defs><g id="Layer_1-2"><circle class="cls-6" cx="78.76" cy="78.76" r="78.76"/><path class="cls-2" d="m65.47,109.82c-2.82-4.5-8.69-15.21-9.14-30.18-.54-18.06,7.18-30.92,9.99-35.17"/><path class="cls-5" d="m57.32,86.46c0-5.63,10.4-11.63,16.8-9.53,3.63,1.19,3.98,4.33,9.9,6.79,3.97,1.65,6.66,1.43,6.9,2.73.3,1.61-3.54,3.54-7.17,5.51-4.43,2.42-6.73,3.67-9.63,4.01-7.41.88-16.8-4.39-16.8-9.53Z"/><path class="cls-5" d="m56.31,86.08c0,7.22-13.33,14.91-21.55,12.22-4.65-1.53-5.11-5.55-12.69-8.71-5.09-2.12-8.54-1.84-8.85-3.51-.38-2.06,4.54-4.53,9.2-7.07,5.69-3.1,8.63-4.7,12.35-5.14,9.5-1.13,21.55,5.63,21.55,12.22Z"/><rect class="cls-1" x="39.1" y="109.96" width="93.28" height="17.06" rx="8.53" ry="8.53"/><polygon class="cls-3" points="111 195.4 60.6 195.4 47.24 127.62 123.71 127.62 111 195.4"/><path class="cls-5" d="m116.61,77.38c0-5.65,10.44-11.67,16.87-9.56,3.64,1.19,4,4.34,9.94,6.82,3.98,1.66,6.69,1.44,6.93,2.74.3,1.61-3.55,3.55-7.2,5.54-4.45,2.42-6.76,3.68-9.67,4.03-7.44.88-16.87-4.4-16.87-9.56Z"/><path class="cls-5" d="m115.82,77.08c0,4.41-8.14,9.1-13.16,7.46-2.84-.93-3.12-3.39-7.75-5.32-3.11-1.29-5.22-1.12-5.41-2.14-.23-1.26,2.77-2.77,5.62-4.32,3.47-1.89,5.27-2.87,7.54-3.14,5.8-.69,13.16,3.44,13.16,7.46Z"/><path class="cls-2" d="m109.44,58.79c2.21,3.52,6.81,11.91,7.15,23.63.42,14.14-5.62,24.21-7.82,27.54"/><path class="cls-4" d="m183.99,86.72c-4.89,2.21-10.97,3.04-18.26,2.58l-6.08,22.03h-16.13l15.4-56.51h16.22l-7.1,25.91c8.02-.92,12.81-6.46,14.47-16.5.46-5.53-.65-9.96-3.32-13.28s-6.91-5.16-12.72-5.62c-3.87-.28-7.65.37-11.34,1.94-3.78,1.57-6.64,4.05-8.57,7.56-1.2,2.31-1.94,4.79-2.21,7.56-.37,2.86.19,5.07,1.66,6.82.83.92,2.3,1.38,4.24,1.38h.37q0,.09.09.19v.09c1.38,3.13.65,5.81-2.4,8.11-3.04,2.31-7.01,2.86-11.99,1.66-4.24-1.48-6.82-4.89-7.84-10.23-1.01-5.25,0-10.51,3.23-15.58,3.23-4.52,8.11-8.02,14.57-10.51,6.36-2.49,13.18-3.78,20.37-3.78,9.13.28,16.22,2.4,21.39,6.55,5.16,4.15,8.3,9.03,9.5,14.66,1.11,5.71.19,11.06-2.86,16.13-2.3,3.78-5.9,6.73-10.69,8.85Z"/><path class="cls-4" d="m184.12,171.94c-4.89,2.21-10.97,3.04-18.26,2.58l-6.08,22.03h-16.13l15.4-56.51h16.22l-7.1,25.91c8.02-.92,12.81-6.46,14.47-16.5.46-5.53-.65-9.96-3.32-13.28s-6.92-5.16-12.72-5.62c-3.87-.28-7.65.37-11.34,1.94-3.78,1.57-6.64,4.05-8.57,7.56-1.2,2.31-1.94,4.79-2.21,7.56-.37,2.86.19,5.07,1.66,6.82.83.92,2.3,1.38,4.24,1.38h.37q0,.09.09.19v.09c1.38,3.13.65,5.81-2.4,8.11-3.04,2.31-7.01,2.86-11.99,1.66-4.24-1.48-6.82-4.89-7.84-10.23-1.01-5.25,0-10.51,3.23-15.58,3.23-4.52,8.11-8.02,14.57-10.51,6.36-2.49,13.18-3.78,20.37-3.78,9.13.28,16.22,2.4,21.39,6.55,5.16,4.15,8.3,9.03,9.5,14.66,1.11,5.71.19,11.06-2.86,16.13-2.3,3.78-5.9,6.73-10.69,8.85Z"/></g></svg>