<?xml version="1.0" encoding="UTF-8"?><svg id="Layer_2" xmlns="http://www.w3.org/2000/svg" viewBox="0 0 457.17 197.33"><defs><style>.cls-1{stroke-width:2px;}.cls-1,.cls-2,.cls-3,.cls-4{stroke-miterlimit:10;}.cls-1,.cls-3{fill:#e0ab7c;}.cls-1,.cls-3,.cls-4{stroke:#b17f4a;}.cls-2{fill:none;stroke:#53ae78;}.cls-2,.cls-3{stroke-width:1.81px;}.cls-5{fill:#53ae78;}.cls-6,.cls-4{fill:#f9f1e6;}.cls-4{stroke-width:1.55px;}</style></defs><g id="Layer_1-2"><circle class="cls-6" cx="78.76" cy="78.76" r="78.76"/><path class="cls-2" d="m65.47,109.82c-2.82-4.5-8.69-15.21-9.14-30.18-.54-18.06,7.18-30.92,9.99-35.17"/><path class="cls-5" d="m57.32,86.46c0-5.63,10.4-11.63,16.8-9.53,3.63,1.19,3.98,4.33,9.9,6.79,3.97,1.65,6.66,1.43,6.9,2.73.3,1.61-3.54,3.54-7.17,5.51-4.43,2.42-6.73,3.67-9.63,4.01-7.41.88-16.8-4.39-16.8-9.53Z"/><path class="cls-5" d="m56.31,86.08c0,7.22-13.33,14.91-21.55,12.22-4.65-1.53-5.11-5.55-12.69-8.71-5.09-2.12-8.54-1.84-8.85-3.51-.38-2.06,4.54-4.53,9.2-7.07,5.69-3.1,8.63-4.7,12.35-5.14,9.5-1.13,21.55,5.63,21.55,12.22Z"/><rect class="cls-1" x="39.1" y="109.96" width="93.28" height="17.06" rx="8.53" ry="8.53"/><polygon class="cls-3" points="111 195.4 60.6 195.4 47.24 127.62 123.71 127.62 111 195.4"/><path class="cls-5" d="m116.61,77.38c0-5.65,10.44-11.67,16.87-9.56,3.64,1.19,4,4.34,9.94,6.82,3.98,1.66,6.69,1.44,6.93,2.74.3,1.61-3.55,3.55-7.2,5.54-4.45,2.42-6.76,3.68-9.67,4.03-7.44.88-16.87-4.4-16.87-9.56Z"/><path class="cls-5" d="m115.82,77.08c0,4.41-8.14,9.1-13.16,7.46-2.84-.93-3.12-3.39-7.75-5.32-3.11-1.29-5.22-1.12-5.41-2.14-.23-1.26,2.77-2.77,5.62-4.32,3.47-1.89,5.27-2.87,7.54-3.14,5.8-.69,13.16,3.44,13.16,7.46Z"/><path class="cls-2" d="m109.44,58.79c2.21,3.52,6.81,11.91,7.15,23.63.42,14.14-5.62,24.21-7.82,27.54"/><path class="cls-4" d="m183.99,86.72c-4.89,2.21-10.97,3.04-18.26,2.58l-6.08,22.03h-16.13l15.4-56.51h16.22l-7.1,25.91c8.02-.92,12.81-6.46,14.47-16.5.46-5.53-.65-9.96-3.32-13.28s-6.91-5.16-12.72-5.62c-3.87-.28-7.65.37-11.34,1.94-3.78,1.57-6.64,4.05-8.57,7.56-1.2,2.31-1.94,4.79-2.21,7.56-.37,2.86.19,5.07,1.66,6.82.83.92,2.3,1.38,4.24,1.38h.37q0,.09.09.19v.09c1.38,3.13.65,5.81-2.4,8.11-3.04,2.31-7.01,2.86-11.99,1.66-4.24-1.48-6.82-4.89-7.84-10.23-1.01-5.25,0-10.51,3.23-15.58,3.23-4.52,8.11-8.02,14.57-10.51,6.36-2.49,13.18-3.78,20.37-3.78,9.13.28,16.22,2.4,21.39,6.55,5.16,4.15,8.3,9.03,9.5,14.66,1.11,5.71.19,11.06-2.86,16.13-2.3,3.78-5.9,6.73-10.69,8.85Z"/><path class="cls-6" d="m225.67,86.9c.09.09.09.28,0,.46v.28c0,1.29-.74,3.41-2.3,6.36-1.57,3.04-3.78,5.9-6.82,8.76-3.41,3.23-7.37,4.98-11.89,5.35-2.95,0-5.25-.65-6.91-2.03-1.66-1.38-2.67-3.13-3.13-5.35-.46-2.12-.37-4.52.37-7.1.74-2.86,2.03-7.65,3.87-14.29,1.75-6.64,3.5-13,5.16-19.18,1.66-6.09,2.67-9.86,3.04-11.25h16.22l-4.7,17.33-5.35,19.08c-.09.46-.28.92-.37,1.38-.46,1.29-.83,2.67-1.2,4.15-.37,1.48-.46,2.77-.28,3.87.19,1.11.92,1.75,2.12,1.94,1.01.09,2.03,0,3.13-.46s2.03-1.02,2.86-1.75c1.75-1.57,3.59-3.96,5.44-7.19v-.09l.19-.19c0-.09.09-.09.19-.19.19,0,.28,0,.37.09Z"/><path class="cls-6" d="m226.41,103.96c-1.84-2.58-2.77-5.81-2.86-9.59-.09-3.78.56-7.65,2.12-11.43,1.57-3.78,3.78-6.91,6.82-9.59,2.95-2.58,6.55-3.87,10.88-3.87,2.31,0,4.61.46,6.82,1.47,2.21,1.02,3.59,2.86,4.15,5.53l1.84-7.01h16.22c-.65,2.21-1.29,4.42-1.94,6.73-1.29,4.43-2.49,8.76-3.5,13.09l-.18.56c-.37,1.01-.56,2.12-.56,3.23,0,1.2.65,2.03,2.03,2.67,1.94.83,4.15.18,6.64-1.85,1.75-1.57,3.6-3.96,5.44-7.19v-.09l.19-.19q.09-.09.18-.09c.28,0,.37,0,.46.09v.65c-.09,1.57-1.11,4.06-3.14,7.56-2.03,3.5-4.98,6.64-8.76,9.5-3.5,2.49-7.38,3.78-11.52,3.78-2.76,0-5.07-.74-6.82-2.21-1.84-1.38-2.67-3.87-2.4-7.28-1.38,2.95-3.13,5.25-5.44,7.01-2.31,1.75-5.07,2.67-8.48,2.67-3.69-.19-6.46-1.57-8.21-4.15Zm14.66-10.42c.65,1.75,1.75,2.67,3.32,2.77,2.86.09,5.07-2.67,6.73-8.3,1.85-6.36,1.11-9.86-2.3-10.6-1.11-.19-2.4.46-3.87,1.94-1.57,1.47-2.86,3.96-3.87,7.56-.65,2.67-.65,4.89,0,6.64Z"/><path class="cls-6" d="m273.71,108.11l10.51-38.63h16.23l-3.32,11.89c2.03-3.78,4.42-6.73,7.28-8.85,2.76-1.94,5.99-2.95,9.68-3.04s6.36,1.57,8.02,4.79c.83,2.12,1.11,4.24.83,6.27-.28,2.12-.83,4.15-1.47,6.18-.28.74-.46,1.48-.65,2.12-.09.19-.09.37-.19.65-.28.83-.46,1.66-.65,2.58-.19,1.02-.19,1.84.09,2.58.28.83.92,1.29,1.94,1.48.92.09,1.94,0,3.04-.46,1.11-.46,2.03-1.02,2.86-1.75,1.84-1.57,3.69-3.96,5.44-7.19q0-.09.09-.09t.09-.19c.09-.09.19-.09.28-.09.19,0,.28,0,.37.09v.65c-.09,1.2-.74,3.04-1.94,5.71s-3.04,5.25-5.44,7.93c-1.94,2.12-4.52,3.87-7.56,5.35s-6.09,2.12-8.94,1.84c-3.5-.19-5.81-2.3-7.01-6.45-.55-3.78.19-8.76,2.21-15.12.92-3.04,1.2-5.25.83-6.64-.37-1.38-1.02-2.03-1.94-2.12-1.2-.09-2.58.46-3.96,1.75s-2.77,2.95-4.06,5.07l-6.55,23.69h-16.13Z"/><path class="cls-6" d="m362.58,86.35v.65c-.09,1.75-1.29,4.7-3.78,8.67-2.49,4.06-6.09,7.38-10.78,10.05-2.67,1.57-5.62,2.31-9.04,2.31-7.47-.55-10.05-5.71-7.74-15.4l5.71-20.74,1.38-5.25h-7.93l1.66-6.18h7.93l1.84-6.73h16.13l-1.84,6.73h8.02l-1.66,6.18h-8.02l-.74,2.86c-.28,1.11-.74,2.58-1.29,4.33-.19.74-.37,1.48-.65,2.21-1.29,4.42-2.4,8.67-3.32,12.72-.09.09-.09.28-.19.46-.37,1.38-.55,2.67-.46,4.05.09,1.38.92,2.21,2.67,2.67,1.84.37,3.78-.28,5.81-2.03,1.84-1.66,3.69-4.05,5.44-7.28l.09-.09q0-.09.09-.19c.09-.09.19-.09.28-.09.19,0,.28,0,.37.09Z"/><path class="cls-4" d="m184.12,171.94c-4.89,2.21-10.97,3.04-18.26,2.58l-6.08,22.03h-16.13l15.4-56.51h16.22l-7.1,25.91c8.02-.92,12.81-6.46,14.47-16.5.46-5.53-.65-9.96-3.32-13.28s-6.92-5.16-12.72-5.62c-3.87-.28-7.65.37-11.34,1.94-3.78,1.57-6.64,4.05-8.57,7.56-1.2,2.31-1.94,4.79-2.21,7.56-.37,2.86.19,5.07,1.66,6.82.83.92,2.3,1.38,4.24,1.38h.37q0,.09.09.19v.09c1.38,3.13.65,5.81-2.4,8.11-3.04,2.31-7.01,2.86-11.99,1.66-4.24-1.48-6.82-4.89-7.84-10.23-1.01-5.25,0-10.51,3.23-15.58,3.23-4.52,8.11-8.02,14.57-10.51,6.36-2.49,13.18-3.78,20.37-3.78,9.13.28,16.22,2.4,21.39,6.55,5.16,4.15,8.3,9.03,9.5,14.66,1.11,5.71.19,11.06-2.86,16.13-2.3,3.78-5.9,6.73-10.69,8.85Z"/><path class="cls-6" d="m196.29,189.18c-1.84-2.58-2.77-5.81-2.86-9.59-.09-3.78.56-7.65,2.12-11.43,1.57-3.78,3.78-6.91,6.82-9.59,2.95-2.58,6.55-3.87,10.88-3.87,2.31,0,4.61.46,6.82,1.47,2.21,1.02,3.59,2.86,4.15,5.53l1.84-7.01h16.22c-.65,2.21-1.29,4.42-1.94,6.73-1.29,4.43-2.49,8.76-3.5,13.09l-.18.56c-.37,1.01-.56,2.12-.56,3.23,0,1.2.65,2.03,2.03,2.67,1.94.83,4.15.18,6.64-1.85,1.75-1.57,3.6-3.96,5.44-7.19v-.09l.19-.19q.09-.09.18-.09c.28,0,.37,0,.46.09v.65c-.09,1.57-1.11,4.06-3.14,7.56-2.03,3.5-4.98,6.64-8.76,9.5-3.5,2.49-7.38,3.78-11.52,3.78-2.76,0-5.07-.74-6.82-2.21-1.84-1.38-2.67-3.87-2.4-7.28-1.38,2.95-3.13,5.25-5.44,7.01-2.31,1.75-5.07,2.67-8.48,2.67-3.69-.19-6.46-1.57-8.21-4.15Zm14.66-10.42c.65,1.75,1.75,2.67,3.32,2.77,2.86.09,5.07-2.67,6.73-8.3,1.85-6.36,1.11-9.86-2.3-10.6-1.11-.19-2.4.46-3.87,1.94-1.57,1.47-2.86,3.96-3.87,7.56-.65,2.67-.65,4.89,0,6.64Z"/><path class="cls-6" d="m293.09,171.39c-1.57,2.49-3.87,4.24-6.82,5.16-3.04,1.02-6.08,1.11-8.85.28-2.86-.83-4.79-2.49-5.62-5.16q-.09-.09-.09-.19v-.28s.09,0,.18-.09c0,0,.09,0,.28-.09,1.94-.65,3.5-1.66,4.61-3.04.65-.92.83-2.03.83-3.23-.09-1.2-.65-2.12-1.57-2.67-.92-.46-2.21-.18-4.06,1.02-1.11.83-2.21,1.84-3.13,3.04s-1.48,2.31-1.75,3.32l-6.27,23.32h-16.22l10.32-38.44h16.22l-2.95,10.97c1.94-3.04,4.24-5.62,6.82-7.84,4.88-3.5,10.05-3.69,15.3-.65,2.12,1.38,3.41,3.23,4.06,5.62.74,3.5.28,6.45-1.29,8.94Z"/><path class="cls-6" d="m339.01,170.93c0,.09,0,.28-.09.55-.55,3.23-1.75,6.27-3.69,8.94-2.86,4.52-6.91,8.11-12.17,10.6-3.78,1.66-7.84,2.49-12.08,2.4-4.24-.09-8.02-1.38-11.34-3.87-2.95-2.49-4.61-5.62-5.07-9.22-.46-3.6,0-7.19,1.38-10.88,1.29-3.59,3.04-6.73,5.35-9.22,4.24-4.7,10.05-6.82,17.33-6.55,3.5.19,6.18,1.11,8.11,2.67,1.94,1.66,2.95,3.69,3.23,5.99.28,3.6-1.2,6.92-4.42,10.05-3.32,3.13-8.48,4.88-15.58,5.25,1.2,2.3,2.95,3.59,5.44,4.06,2.4.46,4.98.28,7.65-.37s4.89-1.57,6.64-2.58c1.57-.83,3.13-1.94,4.7-3.32,1.57-1.38,2.77-2.77,3.69-4.33h.09c0-.09,0-.19.09-.28s.19-.09.28-.09c.28,0,.37.09.46.19Zm-29.22-2.58c1.02,0,1.94,0,2.77-.09,2.86-.46,4.7-1.48,5.53-2.86.83-1.38.92-2.67.28-3.69-.46-.65-1.2-.92-2.21-.92s-2.21.46-3.6,1.48c-2.03,1.48-2.95,3.5-2.77,6.09Z"/><path class="cls-6" d="m331.73,193.33l10.51-38.63h16.23l-3.32,11.89c2.03-3.78,4.42-6.73,7.28-8.85,2.76-1.94,5.99-2.95,9.68-3.04s6.36,1.57,8.02,4.79c.83,2.12,1.11,4.24.83,6.27-.28,2.12-.83,4.15-1.47,6.18-.28.74-.46,1.48-.65,2.12-.09.19-.09.37-.19.65-.28.83-.46,1.66-.65,2.58-.19,1.02-.19,1.84.09,2.58.28.83.92,1.29,1.94,1.48.92.09,1.94,0,3.04-.46,1.11-.46,2.03-1.02,2.86-1.75,1.84-1.57,3.69-3.96,5.44-7.19q0-.09.09-.09t.09-.19c.09-.09.19-.09.28-.09.19,0,.28,0,.37.09v.65c-.09,1.2-.74,3.04-1.94,5.71s-3.04,5.25-5.44,7.93c-1.94,2.12-4.52,3.87-7.56,5.35s-6.09,2.12-8.94,1.84c-3.5-.19-5.81-2.3-7.01-6.45-.55-3.78.19-8.76,2.21-15.12.92-3.04,1.2-5.25.83-6.64-.37-1.38-1.02-2.03-1.94-2.12-1.2-.09-2.58.46-3.96,1.75s-2.77,2.95-4.06,5.07l-6.55,23.69h-16.13Z"/><path class="cls-6" d="m420.6,171.57v.65c-.09,1.75-1.29,4.7-3.78,8.67-2.49,4.06-6.09,7.38-10.78,10.05-2.67,1.57-5.62,2.31-9.04,2.31-7.47-.55-10.05-5.71-7.74-15.4l5.71-20.74,1.38-5.25h-7.93l1.66-6.18h7.93l1.84-6.73h16.13l-1.84,6.73h8.02l-1.66,6.18h-8.02l-.74,2.86c-.28,1.11-.74,2.58-1.29,4.33-.19.74-.37,1.48-.65,2.21-1.29,4.42-2.4,8.67-3.32,12.72-.09.09-.09.28-.19.46-.37,1.38-.55,2.67-.46,4.05.09,1.38.92,2.21,2.67,2.67,1.84.37,3.78-.28,5.81-2.03,1.84-1.66,3.69-4.05,5.44-7.28l.09-.09q0-.09.09-.19c.09-.09.19-.09.28-.09.19,0,.28,0,.37.09Z"/><path class="cls-6" d="m414.89,177.47c1.11-4.24,3.96-7.1,8.48-8.67,1.75-.46,3.59-.55,5.53-.28.19-.56.46-1.2.74-2.03,1.02-2.77,2.21-5.99,3.69-9.59,1.47-3.59,2.76-5.99,3.96-7.28h13.83c-2.95,4.7-2.86,9.31.37,13.92.46.74,1.01,1.48,1.48,2.12,1.75,2.03,3.04,4.33,3.87,7.01.83,2.67.09,6.09-2.03,10.33-1.94,3.5-4.89,6.08-8.76,7.74-3.96,1.75-8.11,2.58-12.63,2.58-2.58,0-5.16-.28-7.74-.92-2.67-.65-4.98-1.75-7.1-3.41-3.59-3.41-4.79-7.19-3.69-11.52Zm14.01-1.2c-.18,1.57.19,3.13,1.11,4.7.92,1.57,2.3,2.49,4.24,2.76,2.49.28,4.61-.28,6.18-1.66,1.57-1.38,1.94-3.41,1.29-6.09-.92-2.49-2.21-5.07-3.96-7.65-.74-1.11-1.38-2.21-2.03-3.32-1.02-2.03-1.57-3.87-1.84-5.62l-3.6,9.4c.74.28,1.29.55,1.75.83.92.65,1.38,1.57,1.29,2.67-.09.46-.37.65-.83.55-.46,0-.83.09-1.2.19-1.38.55-2.21,1.66-2.4,3.23Z"/></g></svg>