<?xml version="1.0" encoding="UTF-8"?><svg id="Layer_2" xmlns="http://www.w3.org/2000/svg" viewBox="0 0 21.55 33.97"><defs><style>.cls-1{fill:#53ae78;}</style></defs><g id="Layer_1-2"><path class="cls-1" d="m8.11,0c.1.07.18.11.24.17,1.6,1.62,3.56,2.68,5.63,3.56,1.1.47,2.2.93,3.29,1.43.95.44,1.85.98,2.6,1.73.92.93,1.36,2.1,1.57,3.36.43,2.64-.33,4.93-2.23,6.79-2.38,2.33-5.91,2.82-8.85,1.27-1.67-.88-2.89-2.18-3.56-3.96-.41-1.07-.43-2.2-.21-3.31.3-1.54.7-3.07,1.07-4.6.38-1.6.66-3.2.61-4.85-.01-.44-.1-.89-.15-1.33,0-.07,0-.15,0-.28Z"/><path class="cls-1" d="m1.37,18.93c.08.05.14.09.18.13,1.27,1.36,2.9,2.15,4.57,2.88.93.4,1.86.81,2.78,1.24,2.44,1.13,3.17,3.4,2.87,5.61-.35,2.57-2.12,4.47-4.66,5.04-3.08.69-5.99-1.16-6.89-3.78-.32-.93-.28-1.89-.07-2.84.31-1.41.69-2.8.99-4.21.26-1.22.41-2.46.18-3.71-.01-.08-.01-.16-.01-.24,0-.03.02-.05.05-.12Z"/></g></svg>