<?xml version="1.0" encoding="UTF-8"?><svg id="Layer_2" xmlns="http://www.w3.org/2000/svg" viewBox="0 0 68.45 74.66"><defs><style>.cls-1{fill:none;stroke:#f9f1e6;stroke-width:2px;}</style></defs><g id="Layer_1-2"><path class="cls-1" d="m26.32,32.21c-1.37-2.18-4.21-7.37-4.43-14.62-.26-8.75,3.48-14.98,4.84-17.04"/><path class="cls-1" d="m22.38,20.89c0-2.73,5.04-5.63,8.14-4.61,1.76.58,1.93,2.1,4.8,3.29,1.92.8,3.23.69,3.34,1.32.14.78-1.71,1.71-3.47,2.67-2.15,1.17-3.26,1.78-4.67,1.94-3.59.43-8.14-2.13-8.14-4.61Z"/><path class="cls-1" d="m21.88,20.71c0,3.5-6.46,7.22-10.44,5.92-2.25-.74-2.47-2.69-6.15-4.22-2.46-1.03-4.14-.89-4.29-1.7-.18-1,2.2-2.2,4.45-3.43,2.75-1.5,4.18-2.28,5.98-2.49,4.6-.55,10.44,2.73,10.44,5.92Z"/><rect class="cls-1" x="13.55" y="32.28" width="45.19" height="8.27" rx="4.13" ry="4.13"/><polygon class="cls-1" points="48.38 73.66 23.96 73.66 17.49 40.83 54.53 40.83 48.38 73.66"/><path class="cls-1" d="m51.1,16.49c0-2.74,5.06-5.65,8.17-4.63,1.76.58,1.94,2.1,4.81,3.3,1.93.8,3.24.7,3.36,1.33.14.78-1.72,1.72-3.49,2.68-2.16,1.17-3.27,1.78-4.68,1.95-3.6.43-8.17-2.13-8.17-4.63Z"/><path class="cls-1" d="m50.71,16.35c0,2.13-3.94,4.41-6.37,3.61-1.38-.45-1.51-1.64-3.75-2.58-1.51-.63-2.53-.54-2.62-1.04-.11-.61,1.34-1.34,2.72-2.09,1.68-.92,2.55-1.39,3.65-1.52,2.81-.33,6.37,1.66,6.37,3.61Z"/><path class="cls-1" d="m47.62,7.49c1.07,1.71,3.3,5.77,3.47,11.45.2,6.85-2.72,11.73-3.79,13.34"/></g></svg>