<?xml version="1.0" encoding="UTF-8"?><svg id="Layer_2" xmlns="http://www.w3.org/2000/svg" viewBox="0 0 95.81 95.89"><defs><style>.cls-1{fill:#53ae78;}</style></defs><g id="Layer_1-2"><path class="cls-1" d="m44.86,95.89c0-6.92.04-13.84-.03-20.75-.01-1.2.38-1.54,1.47-1.48,1.07.06,2.16.08,3.23.01,1.03-.06,1.35.31,1.34,1.34-.05,6.63-.04,13.26-.05,19.89,0,.33.01.66.02.99h-5.97Z"/><path class="cls-1" d="m47.77,28.39c9.75-.49,19.14,8.07,19.11,18.79-.03,10.66-8.48,19.13-19.14,19.06-10.65-.07-19.04-8.86-18.85-19.47.18-10.01,9.01-18.7,18.88-18.38Zm.05,18.89h0c0-4.31,0-8.61,0-12.92q0-2.57-2.46-2.15c-7.39,1.24-12.94,7.84-12.78,15.18.18,7.89,5.9,14.25,13.59,15.12,1.54.17,1.65.08,1.65-1.44,0-4.6,0-9.19,0-13.79Z"/><path class="cls-1" d="m73.67,50.91c0-1.73-.05-3.47.05-5.2.02-.28.71-.72,1.1-.74,1.86-.07,3.73-.03,5.59-.02,4.72.01,9.44.04,14.17.01.9,0,1.28.21,1.23,1.17-.07,1.32,0,2.65,0,3.97,0,.61-.18,1-.92,1-6.92-.03-13.83-.03-20.75-.04-.08,0-.15-.05-.45-.16Z"/><path class="cls-1" d="m0,45.09c.65-.04,1.3-.11,1.95-.11,6.34-.02,12.69,0,19.03-.05.82,0,1.12.26,1.08,1.07-.06,1.41-.07,2.82-.07,4.22,0,.61-.21.89-.87.89-6.92-.02-13.85-.03-20.77-.04-.08,0-.15-.06-.34-.13v-5.86Z"/><path class="cls-1" d="m12.05,79.74c5.15-5.08,10.32-10.19,15.41-15.22,1.1,1.18,2.44,2.6,3.87,4.14-1.26,1.31-2.81,2.96-4.41,4.56-3.31,3.3-6.67,6.56-9.96,9.88-.66.67-1.1.66-1.7,0-1.03-1.13-2.11-2.21-3.21-3.36Z"/><path class="cls-1" d="m84.17,16.05c-5.57,5.32-10.86,10.37-16.16,15.43-1.16-1.14-2.56-2.52-3.94-3.87,1.04-1.1,2.03-2.2,3.07-3.24,3.83-3.84,7.7-7.65,11.52-11.5.75-.76,1.23-.82,2,.01,1.01,1.09,2.2,2,3.51,3.17Z"/><path class="cls-1" d="m11.95,15.93c1.02-.99,2.18-2.12,3.34-3.24.46-.44.92-.68,1.49-.11,4.93,4.96,9.87,9.91,14.91,14.96-1.48,1.3-2.95,2.61-4.24,3.75-4.96-4.92-10.15-10.07-15.49-15.37Z"/><path class="cls-1" d="m63.91,67.97c1.32-1.19,2.49-2.24,3.64-3.31.4-.37.73-.63,1.24-.11,4.89,4.95,9.81,9.88,14.71,14.81.11.11.18.27.51.69-1.17,1.05-2.38,2.05-3.48,3.16-.76.76-1.22.48-1.83-.14-4.37-4.47-8.77-8.92-13.16-13.38-.46-.47-.9-.95-1.63-1.72Z"/><path class="cls-1" d="m50.67,22.17h-5.84c0-.6,0-1.13,0-1.66,0-6.46.01-12.92-.03-19.38,0-.81.22-1.14,1.02-1.13,1.37.02,2.74-.04,4.1.05.33.02.9.52.9.8.03,7,0,14-.01,21,0,.07-.06.15-.14.31Z"/></g></svg>