<?xml version="1.0" encoding="UTF-8"?><svg id="Layer_2" xmlns="http://www.w3.org/2000/svg" viewBox="0 0 96.12 96.06"><defs><style>.cls-1{fill:#53ae78;}</style></defs><g id="Layer_1-2"><path class="cls-1" d="m48.35,28.39c10.28.03,18.85,8.65,18.81,18.91-.04,10.58-8.62,19.14-19.21,19.05-9-.08-18.97-7.35-18.82-19.3.12-10.23,8.77-18.7,19.23-18.66Z"/><path class="cls-1" d="m12.28,16.09c1.27-1.3,2.54-2.61,3.74-3.83,5.22,5.25,10.4,10.46,15.64,15.73-1.18,1.09-2.58,2.4-3.93,3.65-5.05-5.08-10.23-10.3-15.44-15.55Z"/><path class="cls-1" d="m64.39,68.06c1.21-1.03,2.72-2.31,4.18-3.56,4.93,4.98,10.09,10.21,15.18,15.35-1.1,1.19-2.42,2.62-3.89,4.2-5.15-5.32-10.21-10.56-15.47-16Z"/><path class="cls-1" d="m.02,50.79c0-1.61.04-3.14-.01-4.66-.03-.85.36-1.07,1.12-1.06,2.44.02,4.89,0,7.33,0,4.27,0,8.54.04,12.8,0,.88,0,1.17.29,1.14,1.14-.05,1.28-.02,2.57,0,3.85.01.68-.27.95-.96.95-6.75-.02-13.51-.02-20.26-.04-.36,0-.72-.11-1.16-.19Z"/><path class="cls-1" d="m68.27,31.72c-1.08-1.25-2.32-2.69-3.51-4.07,4.91-4.83,10.12-9.96,15.53-15.29.89,1.16,2.08,2.72,3.26,4.25-4.7,4.65-9.91,9.79-15.28,15.1Z"/><path class="cls-1" d="m32,68.51c-5.04,5.01-9.97,9.91-14.89,14.83-.59.59-1.01.62-1.63-.03-1.1-1.17-2.3-2.24-3.37-3.25,5.28-5.38,10.39-10.6,15.56-15.87,1.47,1.47,2.83,2.83,4.32,4.32Z"/><path class="cls-1" d="m45.25.01c1.78,0,3.39.03,5-.01.93-.03.84.57.84,1.15.02,6.13.04,12.26.04,18.39,0,2.84-.03,2.84-2.93,2.81-2.98-.03-3-.03-3-2.98-.02-6.09-.01-12.18-.02-18.26,0-.32.04-.64.07-1.1Z"/><path class="cls-1" d="m84.9,51.03c-3.32,0-6.63-.02-9.95.01-.84,0-1.19-.2-1.12-1.13.08-1.23.03-2.48-.06-3.72-.05-.69.15-1.02.82-1.08.21-.02.41-.04.62-.04,6.43,0,12.85,0,19.28.04,1.63,0,1.62.05,1.62,1.67,0,1.04-.06,2.07,0,3.11.06.88-.28,1.16-1.14,1.15-3.36-.04-6.72-.01-10.07-.01h0Z"/><path class="cls-1" d="m45.11,84.81c0-3.32.02-6.63-.01-9.95,0-.8.23-1.12,1.08-1.08,1.16.06,2.33.06,3.48-.06,1.18-.11,1.5.38,1.49,1.47-.03,4.81,0,9.62,0,14.43,0,1.7-.04,3.4,0,5.1.02.92-.22,1.39-1.26,1.32-1.24-.08-2.49-.04-3.73-.02-.74.01-1-.25-.99-1.03.04-3.4.02-6.8.02-10.2-.02,0-.05,0-.07,0Z"/></g></svg>