<?xml version="1.0" encoding="UTF-8"?><svg id="Layer_2" xmlns="http://www.w3.org/2000/svg" viewBox="0 0 22.09 28.2"><defs><style>.cls-1{fill:#53ae78;}</style></defs><g id="Layer_1-2"><path class="cls-1" d="m2.47,0c.14.12.22.18.28.25,1.53,1.64,3.34,2.92,5.34,3.89,2.06,1,4.19,1.86,6.26,2.83,1.18.55,2.36,1.13,3.48,1.79,2.32,1.37,3.58,3.48,4.06,6.1.46,2.52.13,4.93-1.03,7.21-1.15,2.26-2.87,3.96-5.17,5.01-3.68,1.69-7.3,1.47-10.74-.63-2.38-1.45-4-3.54-4.71-6.27-.37-1.42-.29-2.86,0-4.27.42-2.03.93-4.04,1.42-6.05.69-2.8,1.16-5.62.93-8.52-.02-.27-.07-.53-.1-.8-.02-.14-.02-.28-.04-.52Z"/></g></svg>