<?xml version="1.0" encoding="UTF-8"?><svg id="Layer_2" xmlns="http://www.w3.org/2000/svg" viewBox="0 0 125.07 109.7"><defs><style>.cls-1{fill:#53ae78;}.cls-2{fill:none;stroke:#53ae78;stroke-miterlimit:10;}</style></defs><g id="Layer_1-2"><path class="cls-1" d="m16.72,44.99c-4.36-2.29-8.69-4.67-13.11-6.83C1.35,37.06-.02,35.37,0,33.01c.01-1.07,1.06-2.53,2.05-3.13,3.33-2.01,6.83-3.73,10.29-5.52,4.64-2.39,9.31-4.72,13.96-7.1,6.77-3.47,13.52-6.98,20.29-10.46,3.73-1.92,7.44-3.87,11.22-5.68,3.17-1.52,6.51-1.5,9.61.04,10.45,5.21,20.82,10.56,31.22,15.86,6.15,3.13,12.3,6.26,18.43,9.42,2.05,1.06,4.1,2.15,6.06,3.37,2.57,1.6,2.59,5.94-.08,7.43-4.36,2.44-8.86,4.64-13.3,6.94-.45.23-.88.52-1.32.78-3.31,1.62-6.61,3.26-9.94,4.84-.78.37-1.65.53-2.48.78-.17-.82-.34-1.65-.51-2.47-.3-.69-.41-1.65-.93-2.02-1.72-1.2-3.56-2.26-5.43-3.24-2.85-1.5-5.78-2.87-8.65-4.33-5.67-2.89-11.3-5.85-16.99-8.69-1.9-.95-4.79.24-4.95,2.43-.13,1.73.56,3.21,2.68,4.31,5.4,2.81,10.81,5.6,16.22,8.39,3.34,1.72,6.7,3.4,10.01,5.18.41.22.74.88.82,1.38.18,1.16.18,2.34.26,3.51-.08.09-.17.18-.25.27-3.38,1.69-6.76,3.37-10.13,5.08-3.29,1.67-6.59,3.33-9.85,5.06-3.55,1.88-7.13,2.11-10.74.29-3.98-2-7.91-4.11-11.87-6.13-5.7-2.91-11.41-5.8-17.11-8.7-.35-.18-.66-.42-1-.63,0-.92-1.35-1.64-2.41-1.29-.25-.06-.52-.09-.75-.2-2.58-1.26-5.16-2.53-7.74-3.8Z"/><path class="cls-1" d="m27.62,50.29c.33.21.65.45,1,.63,5.7,2.9,11.41,5.79,17.11,8.7,3.97,2.03,7.89,4.13,11.87,6.13,3.61,1.82,7.19,1.59,10.74-.29,3.26-1.73,6.56-3.39,9.85-5.06,3.37-1.71,6.75-3.39,10.13-5.08,0,7.06,0,14.12,0,21.17-1.47.97-2.95,1.93-3.68,3.65-.08.18-.35.28-.54.42-1.41.16-2.83.46-4.24.46-10.68.02-21.37-.13-32.05.03-3.82.06-7.52-.59-10.97-1.81-3.06-1.08-5.76-3.27-8.52-5.12-1.4-.94-2.73-2.07-3.84-3.33-1.14-1.29-2.09-2.78-2.91-4.3-1.36-2.51-3.02-5.01-3.69-7.72-.66-2.64-1.5-5.38-.94-8.31.33-1.75-.11-3.65-.2-5.49,2.58,1.27,5.16,2.54,7.74,3.8.23.11.5.14.75.2.8.43,1.6.86,2.41,1.29Z"/><path class="cls-2" d="m84.09,80.56c.18-.14.46-.24.54-.42.74-1.72,2.21-2.68,3.68-3.65.1-.26.27-.53.28-.79,0-6.88-.01-13.76-.03-20.65-.08-1.17-.08-2.36-.26-3.51-.08-.5-.41-1.16-.82-1.38-3.31-1.77-6.67-3.45-10.01-5.18-5.41-2.79-10.82-5.58-16.22-8.39-2.12-1.1-2.8-2.58-2.68-4.31.16-2.2,3.04-3.38,4.95-2.43,5.69,2.84,11.32,5.8,16.99,8.69,2.87,1.46,5.79,2.83,8.65,4.33,1.86.98,3.7,2.04,5.43,3.24.52.37.63,1.33.93,2.02,0,8.52-.01,17.03,0,25.55,0,.34.13.67.2,1.01.03.09.06.18.09.26-.56.79-.34,1.41.46,1.84,2.69,1.45,3.74,3.96,3.93,6.75.09,1.34-.41,2.85-1.04,4.08-.6,1.15-.56,2.11-.33,3.29.64,3.31,1.48,6.63,1.64,9.97.21,4.26-2.56,6.89-6.25,7.97-4.93,1.45-9.87-1.97-10.68-6.99-.43-2.69.52-5.12.9-7.67.22-1.53.68-3.03.97-4.55.07-.4.01-.91-.19-1.26-1.37-2.33-1.75-4.76-.99-7.36.04-.13-.07-.31-.12-.47Z"/><path class="cls-1" d="m95.79,74.95c-.03-.09-.06-.18-.09-.26.02-.48.06-.96.06-1.45,0-6.95,0-13.9.01-20.85,0-.6.16-1.19.25-1.79.83-.26,1.71-.42,2.48-.78,3.33-1.58,6.63-3.22,9.94-4.84-.15,3.05-.43,6.1-.42,9.14.01,2.7-.95,5.1-1.94,7.47-1.34,3.21-2.92,6.34-5.43,8.84-1.57,1.56-3.24,3.01-4.86,4.51Z"/><path class="cls-1" d="m96.02,50.61c-.09.6-.25,1.19-.25,1.79-.02,6.95-.01,13.9-.01,20.85,0,.48-.04.96-.06,1.45-.07-.34-.2-.67-.2-1.01,0-8.52,0-17.03,0-25.55.17.82.34,1.65.51,2.47Z"/><path class="cls-1" d="m88.56,55.05c.01,6.88.03,13.76.03,20.65,0,.26-.18.53-.28.79,0-7.06,0-14.12,0-21.17.08-.09.17-.18.25-.27Z"/><path class="cls-1" d="m27.62,50.29c-.8-.43-1.6-.86-2.41-1.29,1.06-.35,2.4.37,2.41,1.29Z"/></g></svg>