<?xml version="1.0" encoding="UTF-8"?><svg id="Layer_2" xmlns="http://www.w3.org/2000/svg" viewBox="0 0 96.13 96.08"><defs><style>.cls-1{fill:#53ae78;}</style></defs><g id="Layer_1-2"><path class="cls-1" d="m96.13,50.79c-4.3.09-8.6.2-12.9.26-2.69.04-5.38-.03-8.07.02-1.04.02-1.53-.22-1.43-1.38.11-1.23.06-2.48.05-3.72,0-.62.23-.87.88-.87,6.75.03,13.5.03,20.25.05.41,0,.82.11,1.22.17v5.47Z"/><path class="cls-1" d="m67,47.46c.32,9.44-7.58,18.82-18.85,18.92-10.26.09-19.19-8.83-19.17-19.09.02-10.35,8.64-18.81,19.17-18.88,10.73-.07,19.23,9.25,18.85,19.05Zm-34.15-.07c-.5,7.43,6.23,15.2,14.72,15.32,9,.13,15.5-7.22,15.79-14.65.33-8.49-6.55-15.88-15.2-15.93-9.06-.06-15.79,7.83-15.3,15.26Z"/><path class="cls-1" d="m32.1,68.79c-4.69,4.53-9.31,8.98-13.92,13.44q-1.96,1.9-3.91.03c-.77-.74-1.54-1.48-2.3-2.2,5.32-5.27,10.51-10.42,15.76-15.63,1.19,1.19,2.57,2.57,4.36,4.36Z"/><path class="cls-1" d="m64.37,27.55c.25-.27.6-.68.97-1.06,4.48-4.49,8.99-8.96,13.45-13.47.75-.76,1.24-1.04,2.04-.05.81.99,1.84,1.79,2.7,2.75.21.23.29.91.12,1.08-5.03,5.06-10.09,10.07-15.28,15.23-1.37-1.52-2.63-2.94-4-4.47Z"/><path class="cls-1" d="m45.08,11.18c0-3.27.03-6.54-.02-9.82-.02-.98.2-1.44,1.29-1.35,1.07.1,2.16.1,3.23,0,1.23-.12,1.48.48,1.46,1.52-.05,2.36-.05,4.72-.05,7.08,0,4.1,0,8.2.04,12.3.01,1.08-.26,1.62-1.48,1.47-.94-.11-1.91-.08-2.85.01-1.21.13-1.68-.22-1.64-1.54.1-3.23.03-6.46.03-9.69h0Z"/><path class="cls-1" d="m45.08,73.83h5.92c.02.39.05.79.05,1.18-.02,6.54-.05,13.09-.03,19.63,0,1-.25,1.45-1.31,1.39-1.07-.06-2.16-.06-3.23.04-1.09.1-1.43-.25-1.42-1.37.05-5.47.02-10.93.02-16.4,0-1.44,0-2.89,0-4.47Z"/><path class="cls-1" d="m22.35,45.2c0,1.66,0,3.27,0,4.87,0,.72-.34,1-1.08,1-6.72-.02-13.44-.03-20.16-.01-.87,0-1.15-.3-1.1-1.17.08-1.28.04-2.57.02-3.85-.01-.65.16-.97.91-.97,6.8.03,13.6.03,20.41.04.28,0,.56.05,1,.09Z"/><path class="cls-1" d="m68.79,64.67c.84.8,2.04,1.92,3.21,3.08,3.73,3.71,7.43,7.46,11.2,11.13.87.85.76,1.31-.11,2.03-1.08.89-2.02,1.95-2.94,2.84-5.14-5.14-10.28-10.29-15.56-15.58,1.2-1,2.64-2.2,4.2-3.5Z"/><path class="cls-1" d="m12.42,16.27c1.25-1.31,2.55-2.68,3.89-4.08,5.21,5.15,10.41,10.29,15.7,15.52-1.52,1.45-2.91,2.78-4.07,3.89-5.31-5.25-10.48-10.35-15.52-15.33Z"/></g></svg>