<?xml version="1.0" encoding="UTF-8"?><svg id="Layer_2" xmlns="http://www.w3.org/2000/svg" viewBox="0 0 26.09 32.45"><defs><style>.cls-1{fill:#53ae78;}</style></defs><g id="Layer_1-2"><path class="cls-1" d="m16.62,18.2c.43.4.78.81,1.21,1.1.71.49,1.45.95,2.22,1.35,1.13.58,2.32,1.07,3.45,1.64,1.61.82,2.46,2.16,2.58,3.96.15,2.21-.62,3.99-2.45,5.3-1.91,1.36-4.83,1.14-6.51-.52-.85-.83-1.47-1.78-1.64-2.98-.11-.82,0-1.63.18-2.43.3-1.32.62-2.64.88-3.96.2-1.04.24-2.1.1-3.16-.01-.08,0-.17-.02-.3Z"/><path class="cls-1" d="m5.76,0c.41.36.77.72,1.16,1.04.98.79,2.1,1.33,3.24,1.84.83.37,1.65.76,2.46,1.17,1.59.8,2.39,2.13,2.56,3.88.17,1.79-.33,3.38-1.6,4.65-2.96,2.97-7.27,1.57-8.66-1.63-.4-.92-.45-1.86-.28-2.81.23-1.25.55-2.49.81-3.73.3-1.41.51-2.83.28-4.27,0-.03,0-.05.02-.12Z"/><path class="cls-1" d="m.91,18.29c.53.41,1.01.86,1.56,1.18.86.5,1.77.91,2.66,1.36.39.2.79.38,1.18.58,1.4.71,2.01,1.92,2.04,3.43.04,2.09-1.14,3.74-3.1,4.38-1.86.61-4-.39-4.89-2.21-.47-.97-.41-1.95-.2-2.95.18-.85.4-1.68.58-2.53.21-1.03.35-2.06.16-3.11,0-.04,0-.08.01-.12Z"/></g></svg>